<?xml version="1.0" standalone="no"?>
<!DOCTYPE svg PUBLIC "-//W3C//DTD SVG 20010904//EN"
 "http://www.w3.org/TR/2001/REC-SVG-20010904/DTD/svg10.dtd">
<svg version="1.0" xmlns="http://www.w3.org/2000/svg"
 width="940.000000pt" height="492.000000pt" viewBox="0 0 940.000000 492.000000"
 preserveAspectRatio="xMidYMid meet">
<metadata>
Created by potrace 1.16, written by Peter Selinger 2001-2019
</metadata>
<g transform="translate(0.000000,492.000000) scale(0.100000,-0.100000)"
fill="#000000" stroke="none">
<path d="M0 2460 l0 -2460 4700 0 4700 0 0 2460 0 2460 -4700 0 -4700 0 0
-2460z m5505 1435 c178 -47 265 -129 311 -293 14 -51 15 -65 5 -72 -7 -4 -86
-11 -175 -14 -88 -4 -168 -9 -177 -12 -11 -3 -19 7 -28 36 -16 53 -63 106
-107 120 -20 7 -65 10 -101 8 -59 -4 -69 -8 -94 -36 -35 -39 -38 -81 -6 -109
33 -30 35 -31 189 -69 79 -19 172 -44 208 -56 155 -50 258 -126 307 -227 25
-51 28 -66 28 -166 0 -104 -2 -114 -32 -176 -59 -119 -170 -205 -318 -244
-147 -39 -423 -26 -559 26 -75 29 -163 109 -203 186 -35 64 -63 152 -63 193
l0 27 113 7 c61 3 146 9 188 12 l75 6 17 -61 c30 -106 107 -161 223 -161 130
1 211 103 154 195 -26 42 -82 68 -213 101 -218 54 -335 105 -412 180 -68 65
-88 113 -93 221 -4 86 -2 96 26 157 63 135 186 211 382 236 90 12 283 3 355
-15z m-3808 -28 c98 -33 187 -124 215 -220 17 -61 14 -183 -6 -244 -34 -103
-121 -186 -230 -220 -54 -18 -73 -33 -39 -33 35 0 100 -51 149 -117 39 -52
244 -430 244 -449 0 -2 -101 -4 -224 -4 -167 0 -226 3 -233 13 -6 6 -61 107
-123 222 -62 116 -124 224 -137 241 -28 37 -62 53 -118 57 l-40 2 -3 -268 -2
-267 -203 2 -202 3 -3 653 -2 653 452 -3 c397 -3 459 -6 505 -21z m-302 -1517
c240 -34 351 -132 399 -351 5 -25 3 -27 -42 -32 -26 -4 -112 -9 -192 -13
l-145 -7 -12 45 c-16 59 -65 102 -132 117 -85 18 -163 -8 -185 -61 -32 -74 9
-105 202 -152 260 -63 358 -104 442 -182 194 -181 118 -530 -141 -648 -106
-49 -171 -60 -344 -59 -170 1 -267 18 -363 64 -60 30 -137 111 -172 183 -26
53 -66 193 -58 201 4 4 308 25 353 25 30 0 33 -3 40 -37 21 -115 106 -183 227
-183 60 0 104 18 143 59 24 26 30 41 30 76 0 35 -6 50 -30 76 -39 41 -67 52
-249 100 -249 65 -377 142 -436 264 -36 74 -35 198 2 277 63 136 196 219 388
241 71 8 207 6 275 -3z m1600 -15 c159 -41 273 -137 348 -292 22 -46 38 -86
35 -88 -3 -3 -76 -21 -164 -40 -87 -20 -166 -38 -174 -40 -11 -4 -20 6 -29 31
-17 48 -65 101 -115 126 -58 29 -157 29 -220 -1 -104 -51 -148 -156 -147 -351
0 -200 37 -297 131 -347 39 -21 56 -24 125 -21 51 2 94 10 118 22 46 23 92 87
119 167 12 35 25 58 32 56 6 -2 84 -26 174 -52 100 -30 162 -53 162 -61 0 -7
-10 -42 -23 -77 -67 -183 -187 -295 -369 -344 -85 -23 -314 -23 -418 0 -149
33 -260 109 -344 235 -88 133 -122 277 -113 472 7 140 26 222 74 319 81 163
237 268 448 302 73 12 280 2 350 -16z m3128 -4 c43 -11 106 -35 140 -53 60
-32 161 -123 202 -182 l20 -29 43 57 c109 143 270 219 497 232 308 19 565
-108 661 -326 10 -22 20 -40 23 -40 3 0 6 78 6 172 l0 173 203 3 202 2 0 -495
0 -495 315 0 315 0 -2 -160 -3 -160 -515 0 -515 0 0 175 c0 96 -2 175 -5 174
-3 0 -19 -31 -37 -68 -100 -209 -352 -329 -649 -307 -238 18 -394 92 -495 235
l-42 59 -43 -58 c-77 -105 -183 -174 -322 -212 -111 -30 -343 -30 -457 1 -124
33 -181 66 -265 150 -86 86 -128 159 -161 276 -32 112 -32 333 -1 448 67 246
249 406 507 447 92 14 288 4 378 -19z m-2013 -221 l0 -230 220 0 220 0 2 228
3 227 203 3 202 2 -2 -655 -3 -656 -200 0 -200 0 -3 266 -2 265 -218 -2 -217
-3 -5 -263 -5 -263 -198 -2 -197 -2 0 658 0 657 200 0 200 0 0 -230z"/>
<path d="M1150 3495 l0 -135 90 0 c149 0 237 26 265 80 36 69 2 155 -70 176
-22 7 -95 13 -162 13 l-123 1 0 -135z"/>
<path d="M5790 2037 c-50 -16 -123 -93 -145 -152 -11 -33 -19 -91 -22 -168 -8
-180 16 -275 89 -344 48 -46 96 -63 181 -63 60 0 83 5 128 28 107 54 143 151
137 371 -3 116 -7 144 -27 189 -28 62 -93 123 -149 140 -48 15 -145 14 -192
-1z"/>
<path d="M6975 2035 c-61 -21 -128 -99 -151 -176 -24 -85 -25 -279 -1 -360 38
-127 123 -189 256 -189 92 0 141 20 193 78 57 63 73 129 73 302 0 142 -1 146
-31 211 -49 102 -122 148 -239 148 -33 0 -78 -6 -100 -14z"/>
</g>
</svg>
